<?xml version="1.0" encoding="utf-8"?>
<!-- Generator: Adobe Illustrator 21.0.0, SVG Export Plug-In . SVG Version: 6.00 Build 0)  -->
<svg version="1.1" id="Layer_1" xmlns="http://www.w3.org/2000/svg" xmlns:xlink="http://www.w3.org/1999/xlink" x="0px" y="0px"
	 viewBox="0 0 20 20" style="enable-background:new 0 0 20 20;" xml:space="preserve">
<style type="text/css">
	.st0{filter:url(#Adobe_OpacityMaskFilter);}
	.st1{fill:#FFFFFF;}
	.st2{mask:url(#mask-2_1_);fill:#231F20;}
</style>
<title>icon-builden</title>
<desc>Created with Sketch.</desc>
<g id="建案單頁">
	<g id="相冊列表" transform="translate(-972.000000, -769.000000)">
		<g id="右側切換" transform="translate(950.000000, 296.000000)">
			<g id="樣品" transform="translate(22.000000, 467.337159)">
				<g id="icon-sofa" transform="translate(0.000000, 6.017217)">
					<g id="Clip-2">
					</g>
					<defs>
						<filter id="Adobe_OpacityMaskFilter" filterUnits="userSpaceOnUse" x="1.4" y="3" width="17" height="13.3">
							<feColorMatrix  type="matrix" values="1 0 0 0 0  0 1 0 0 0  0 0 1 0 0  0 0 0 1 0"/>
						</filter>
					</defs>
					<mask maskUnits="userSpaceOnUse" x="1.4" y="3" width="17" height="13.3" id="mask-2_1_">
						<g class="st0">
							<polygon id="path-1_1_" class="st1" points="1.4,3 18.4,3 18.4,16.3 1.4,16.3 							"/>
						</g>
					</mask>
					<path id="Fill-1" class="st2" d="M17.6,7.9c-0.2,0.6-1,1.1-1.2,1.2l-0.2,0.1l0,0.2c0,2.6-1,4.6-1.3,5.2h-0.7v0.9h-0.6v-0.9H6.2
						v0.9H5.6v-0.9H4.9C4.6,14,3.6,12,3.6,9.4l0-0.2L3.4,9.1C3.2,9,2.4,8.5,2.2,7.9c-0.1-0.3,0-0.6,0.2-1c0.3-0.5,0.8-0.7,1.3-0.7
						c0.6,0,1,0.2,1.2,1.2l0.8,4.3h8.5l0.8-4.3l0,0c0.2-1.1,0.7-1.2,1.2-1.2c0.5,0,1,0.3,1.3,0.7C17.6,7.3,17.6,7.6,17.6,7.9
						 M9.9,3.8c3.4,0,4.2,2.5,4.3,2.9l-0.8,4.2H6.3L5.5,6.4C5.6,6,6.6,3.8,9.9,3.8 M18,6.5L18,6.5c-0.4-0.7-1.2-1.1-2-1.1
						c-0.5,0-1,0.2-1.3,0.5C14.3,4.9,13,3,9.9,3c-3.2,0-4.5,1.9-5,2.8C4.6,5.5,4.2,5.4,3.7,5.4c-0.8,0-1.6,0.4-2,1.1
						C1.4,7,1.3,7.6,1.5,8.1c0.2,0.8,0.9,1.3,1.4,1.6c0.1,3.2,1.5,5.4,1.5,5.5l0.1,0.2h0.3v0.9H7v-0.9h5.8v0.9h2.1v-0.9h0.3l0.1-0.2
						c0.1-0.1,1.4-2.3,1.5-5.5c0.4-0.3,1.1-0.8,1.4-1.6C18.5,7.6,18.4,7,18,6.5"/>
				</g>
			</g>
		</g>
	</g>
</g>
</svg>
