<?xml version="1.0" encoding="utf-8"?>
<!-- Generator: Adobe Illustrator 21.0.0, SVG Export Plug-In . SVG Version: 6.00 Build 0)  -->
<svg version="1.1" id="Layer_1" xmlns="http://www.w3.org/2000/svg" xmlns:xlink="http://www.w3.org/1999/xlink" x="0px" y="0px"
	 viewBox="0 0 20 20" style="enable-background:new 0 0 20 20;" xml:space="preserve">
<style type="text/css">
	.st0{filter:url(#Adobe_OpacityMaskFilter);}
	.st1{fill:#FFFFFF;}
	.st2{mask:url(#mask-2_1_);}
	.st3{fill:none;stroke:#000000;stroke-width:0.6;}
</style>
<title>icon-builden</title>
<desc>Created with Sketch.</desc>
<g id="Page-1">
	<g id="Group-8" transform="translate(2.000000, -1.000000)">
		<g id="Group-3" transform="translate(0.000000, 0.474091)">
			<g id="Clip-2">
			</g>
			<defs>
				<filter id="Adobe_OpacityMaskFilter" filterUnits="userSpaceOnUse" x="1.7" y="0.7" width="12.6" height="17">
					<feColorMatrix  type="matrix" values="1 0 0 0 0  0 1 0 0 0  0 0 1 0 0  0 0 0 1 0"/>
				</filter>
			</defs>
			<mask maskUnits="userSpaceOnUse" x="1.7" y="0.7" width="12.6" height="17" id="mask-2_1_">
				<g class="st0">
					<polygon id="path-1_1_" class="st1" points="1.7,0.7 14.3,0.7 14.3,17.7 1.7,17.7 					"/>
				</g>
			</mask>
			<path id="Fill-1" class="st2" d="M8,1.6c-1.4,0-2.8,0.5-3.8,1.5c-1,1-1.6,2.3-1.6,3.7c0,1.4,0.5,2.8,1.5,4.2
				c0.8,1.1,3,4.3,3.9,5.6c0.6-0.8,3.1-4.4,3.9-5.6c1.6-2.3,1.9-4.7,0.9-6.6C11.9,2.7,10.1,1.6,8,1.6L8,1.6z M8,17.7
				c-0.3,0-0.5-0.1-0.7-0.4l-0.1-0.1c-0.9-1.3-3.1-4.5-3.9-5.6c-1.1-1.6-1.7-3.2-1.7-4.8c0-1.7,0.7-3.2,1.8-4.4
				C4.7,1.3,6.3,0.7,8,0.7h0c2.4,0,4.5,1.3,5.6,3.3c1.2,2.2,0.8,5-1,7.6c-0.8,1.2-3.5,5-3.9,5.6C8.7,17.4,8.4,17.7,8,17.7L8,17.7z"
				/>
		</g>
		<path id="Fill-4" d="M10.4,19.6c0,0.3-1.1,0.6-2.4,0.6c-1.3,0-2.4-0.3-2.4-0.6S6.7,19,8,19C9.3,19,10.4,19.3,10.4,19.6"/>
		<path id="Stroke-6" class="st3" d="M5,7.1c0,1.7,1.4,3,3,3s3-1.4,3-3s-1.4-3-3-3S5,5.4,5,7.1z"/>
	</g>
</g>
</svg>
