<?xml version="1.0" encoding="utf-8"?>
<!-- Generator: Adobe Illustrator 21.0.0, SVG Export Plug-In . SVG Version: 6.00 Build 0)  -->
<svg version="1.1" id="Layer_1" xmlns="http://www.w3.org/2000/svg" xmlns:xlink="http://www.w3.org/1999/xlink" x="0px" y="0px"
	 viewBox="0 0 20 20" style="enable-background:new 0 0 20 20;" xml:space="preserve">
<title>icon-builden</title>
<desc>Created with Sketch.</desc>
<g id="建案單頁">
	<g id="相冊列表" transform="translate(-974.000000, -511.000000)">
		<g id="右側切換" transform="translate(950.000000, 296.000000)">
			<g id="建案" transform="translate(24.000000, 212.608321)">
				<g id="icon-builden" transform="translate(0.000000, 3.008608)">
					<polygon id="Fill-1" points="5.9,11.3 7.3,11.3 7.3,9.9 5.9,9.9 					"/>
					<polygon id="Fill-2" points="5.9,5.8 7.3,5.8 7.3,4.4 5.9,4.4 					"/>
					<polygon id="Fill-3" points="5.9,8.5 7.3,8.5 7.3,7.2 5.9,7.2 					"/>
					<polygon id="Fill-4" points="8.7,5.8 10,5.8 10,4.4 8.7,4.4 					"/>
					<polygon id="Fill-5" points="8.7,8.5 10,8.5 10,7.2 8.7,7.2 					"/>
					<polygon id="Fill-6" points="8.7,11.3 10,11.3 10,9.9 8.7,9.9 					"/>
					<path id="Fill-7" d="M3.4,17.1h9.2V1.9H3.4V17.1z M4.4,2.9h7.2v13.2H8.5v-2.9h-1v2.9H4.4V2.9z"/>
					<polygon id="Fill-8" points="12,5.8 12,6.8 15.9,6.8 15.9,16.1 12,16.1 12,17.1 16.9,17.1 16.9,5.8 					"/>
				</g>
			</g>
		</g>
	</g>
</g>
</svg>
