<?xml version="1.0" encoding="utf-8"?>
<!-- Generator: Adobe Illustrator 21.0.0, SVG Export Plug-In . SVG Version: 6.00 Build 0)  -->
<svg version="1.1" id="Layer_1" xmlns="http://www.w3.org/2000/svg" xmlns:xlink="http://www.w3.org/1999/xlink" x="0px" y="0px"
	 viewBox="0 0 20 20" style="enable-background:new 0 0 20 20;" xml:space="preserve">
<style type="text/css">
	.st0{filter:url(#Adobe_OpacityMaskFilter);}
	.st1{fill:#FFFFFF;}
	.st2{mask:url(#mask-2_1_);}
</style>
<title>icon-builden</title>
<desc>Created with Sketch.</desc>
<g id="建案單頁">
	<g id="相冊列表" transform="translate(-973.000000, -823.000000)">
		<g id="右側切換" transform="translate(950.000000, 296.000000)">
			<g id="格局" transform="translate(23.000000, 521.492109)">
				<g id="icon-格局" transform="translate(-0.000000, 6.017217)">
					<g id="Clip-2">
					</g>
					<defs>
						<filter id="Adobe_OpacityMaskFilter" filterUnits="userSpaceOnUse" x="1.9" y="1.4" width="16.4" height="16">
							<feColorMatrix  type="matrix" values="1 0 0 0 0  0 1 0 0 0  0 0 1 0 0  0 0 0 1 0"/>
						</filter>
					</defs>
					<mask maskUnits="userSpaceOnUse" x="1.9" y="1.4" width="16.4" height="16" id="mask-2_1_">
						<g class="st0">
							<polygon id="path-1_1_" class="st1" points="1.9,1.4 18.3,1.4 18.3,17.4 1.9,17.4 							"/>
						</g>
					</mask>
					<path id="Fill-1" class="st2" d="M17.7,1.4H9.1C8.7,1.4,8.5,1.6,8.5,2s0.3,0.6,0.6,0.6h8.1v4.9h-6.4c-0.4,0-0.7,0.3-0.7,0.7
						v6.1c0,0.4,0.3,0.7,0.7,0.7c0.4,0,0.7-0.3,0.7-0.7V8.8h5.7v7.5H3V2.5h2.6c0.3,0,0.6-0.3,0.6-0.6S5.9,1.4,5.6,1.4H2.5
						C2.1,1.4,1.9,1.6,1.9,2v14.9c0,0.3,0.3,0.6,0.6,0.6h15.3c0.3,0,0.6-0.3,0.6-0.6V2C18.3,1.6,18,1.4,17.7,1.4"/>
				</g>
			</g>
		</g>
	</g>
</g>
</svg>
