<?xml version="1.0" encoding="utf-8"?>
<!-- Generator: Adobe Illustrator 21.0.0, SVG Export Plug-In . SVG Version: 6.00 Build 0)  -->
<svg version="1.1" id="Layer_1" xmlns="http://www.w3.org/2000/svg" xmlns:xlink="http://www.w3.org/1999/xlink" x="0px" y="0px"
	 viewBox="0 0 20 20" style="enable-background:new 0 0 20 20;" xml:space="preserve">
<style type="text/css">
	.st0{filter:url(#Adobe_OpacityMaskFilter);}
	.st1{fill:#FFFFFF;}
	.st2{mask:url(#mask-2_1_);}
</style>
<title>icon-builden</title>
<desc>Created with Sketch.</desc>
<g id="建案單頁">
	<g id="相冊列表" transform="translate(-974.000000, -459.000000)">
		<g id="右側切換" transform="translate(950.000000, 296.000000)">
			<g id="_x33_D" transform="translate(24.000000, 158.453372)">
				<g id="icon-3D" transform="translate(0.000000, 5.014347)">
					<g id="Clip-2">
					</g>
					<defs>
						<filter id="Adobe_OpacityMaskFilter" filterUnits="userSpaceOnUse" x="2.5" y="1" width="14.9" height="16.8">
							<feColorMatrix  type="matrix" values="1 0 0 0 0  0 1 0 0 0  0 0 1 0 0  0 0 0 1 0"/>
						</filter>
					</defs>
					<mask maskUnits="userSpaceOnUse" x="2.5" y="1" width="14.9" height="16.8" id="mask-2_1_">
						<g class="st0">
							<polygon id="path-1_1_" class="st1" points="2.5,1 17.4,1 17.4,17.8 2.5,17.8 							"/>
						</g>
					</mask>
					<path id="Fill-1" class="st2" d="M16.5,6.2v7l-6.1,3.4l0-7L16.5,6.2z M16,5.4L9.9,8.8L3.9,5.4L9.9,2L16,5.4z M9.5,9.6l0,7
						l-6.1-3.4l0-7L9.5,9.6z M17.1,5l-7-3.9C10,1,9.8,1,9.7,1.1L2.7,5C2.6,5.1,2.5,5.2,2.5,5.4l0,8c0,0.2,0.1,0.3,0.2,0.4l7,3.9
						c0.1,0,0.1,0.1,0.2,0.1c0.1,0,0.2,0,0.2-0.1l7-3.9c0.1-0.1,0.2-0.2,0.2-0.4v-8C17.4,5.2,17.3,5.1,17.1,5L17.1,5z"/>
				</g>
			</g>
		</g>
	</g>
</g>
</svg>
